<?xml version="1.0" encoding="UTF-8" standalone="no"?>
<svg
   xmlns:dc="http://purl.org/dc/elements/1.1/"
   xmlns:cc="http://creativecommons.org/ns#"
   xmlns:rdf="http://www.w3.org/1999/02/22-rdf-syntax-ns#"
   xmlns:svg="http://www.w3.org/2000/svg"
   xmlns="http://www.w3.org/2000/svg"
   xmlns:sodipodi="http://sodipodi.sourceforge.net/DTD/sodipodi-0.dtd"
   xmlns:inkscape="http://www.inkscape.org/namespaces/inkscape"
   sodipodi:docname="logo-text-black.svg"
   inkscape:version="1.0beta2 (2b71d25, 2019-12-03)"
   width="640.0px"
   height="480.0px"
   viewBox="0 0 640.0 480.0"
   version="1.1"
   id="SVGRoot">
  <defs
     id="defs259" />
  <sodipodi:namedview
     inkscape:window-maximized="0"
     inkscape:window-y="23"
     inkscape:window-x="0"
     inkscape:window-height="779"
     inkscape:window-width="1440"
     showgrid="false"
     inkscape:document-rotation="0"
     inkscape:current-layer="layer1"
     inkscape:document-units="px"
     inkscape:cy="243.97359"
     inkscape:cx="327.64346"
     inkscape:zoom="0.73228715"
     inkscape:pageshadow="2"
     inkscape:pageopacity="0.0"
     borderopacity="1.0"
     bordercolor="#666666"
     pagecolor="#ffffff"
     id="base" />
  <metadata
     id="metadata262">
    <rdf:RDF>
      <cc:Work
         rdf:about="">
        <dc:format>image/svg+xml</dc:format>
        <dc:type
           rdf:resource="http://purl.org/dc/dcmitype/StillImage" />
        <dc:title></dc:title>
      </cc:Work>
    </rdf:RDF>
  </metadata>
  <g
     id="layer1"
     inkscape:groupmode="layer"
     inkscape:label="Layer 1">
    <ellipse
       ry="219.39235"
       rx="275.83966"
       cy="252.21069"
       cx="320.82349"
       id="path1089"
       style="fill:#000000;fill-rule:evenodd;stroke-width:14.8197" />
    <ellipse
       style="fill:#ffffff;fill-rule:evenodd;stroke-width:12.9118"
       id="path1089-5"
       cx="320.82349"
       cy="252.21069"
       rx="242.10387"
       ry="189.74474" />
    <path
       d="m 181.69384,-96.828941 a 87.400574,83.58696 0 0 1 -54.25873,77.344422 87.400574,83.58696 0 0 1 -95.407982,-18.68721 87.400574,83.58696 0 0 1 -18.097706,-91.516611 87.400574,83.58696 0 0 1 81.682872,-50.71804 l -1.319028,83.577439 z"
       sodipodi:arc-type="slice"
       sodipodi:end="4.7274813"
       sodipodi:start="0"
       sodipodi:ry="83.58696"
       sodipodi:rx="87.400574"
       sodipodi:cy="-96.828941"
       sodipodi:cx="94.293266"
       sodipodi:type="arc"
       transform="scale(1,-1)"
       id="path1125"
       style="fill:#000000;stroke-width:12.0761" />
    <path
       sodipodi:nodetypes="ccscscssscsc"
       inkscape:connector-curvature="0"
       id="path1159"
       d="m 509.37591,196.66694 c -7.78572,-12.33246 -22.26852,-26.00732 -35.72018,-35.57713 -32.83095,-23.35678 -70.72377,-36.05303 -107.16073,-11.85907 -2.08396,1.38376 -11.35196,13.6686 -12.65187,17.55302 -4.15577,12.41727 -7.32166,17.39995 -7.32166,31.73837 0,13.28163 4.43938,27.57686 13.28223,38.65967 13.38113,16.77084 27.50101,18.11064 43.90164,21.37764 12.30706,2.45154 22.32347,5.30876 34.23018,9.26179 18.84128,6.25525 28.47546,27.80916 47.62692,31.62411 15.55599,3.09872 30.92546,-0.19361 42.65519,-11.73066 5.15112,-5.06648 8.61119,-16.6528 7.07798,-29.041 -3.47551,-28.08241 -8.48437,-33.7223 -25.9197,-62.00674 z"
       style="fill:#000000;stroke:#000000;stroke-width:14.8197px;stroke-linecap:round;stroke-linejoin:miter;stroke-opacity:1" />
    <path
       style="fill:#000000;stroke:#000000;stroke-width:14.8197px;stroke-linecap:round;stroke-linejoin:miter;stroke-opacity:1"
       d="m 132.54232,194.95465 c 7.7857,-12.33246 22.26852,-26.0073 35.72019,-35.57714 32.83092,-23.35678 70.72374,-36.05302 107.1607,-11.85906 2.08398,1.38375 11.35196,13.6686 12.65189,17.55302 4.15575,12.41727 7.32166,17.39994 7.32166,31.73837 0,13.28163 -4.4394,27.57686 -13.28223,38.65967 -13.38114,16.77084 -27.50103,18.11063 -43.90163,21.37763 -12.30709,2.45157 -22.32347,5.30876 -34.23021,9.26179 -18.84128,6.25526 -28.47544,27.80915 -47.62692,31.62409 -15.55597,3.09872 -30.92544,-0.1936 -42.65517,-11.73065 -5.15112,-5.06648 -8.61119,-16.65278 -7.07799,-29.04098 3.47552,-28.08241 8.48439,-33.7223 25.91971,-62.00674 z"
       id="path1159-6"
       inkscape:connector-curvature="0"
       sodipodi:nodetypes="ccscscssscsc" />
    <path
       inkscape:connector-curvature="0"
       id="path1196"
       d="m 159.89424,77.6141 c -8.17832,0.915646 -7.23375,-0.842578 -12.60034,-4.183291 -4.13973,-2.576985 -19.50979,-9.963302 -24.15068,-11.504066 -9.68793,-3.216333 -19.97043,-6.432771 -29.400876,-10.458217 -1.580867,-0.674874 -3.398437,-2.676392 -5.25017,-3.137463 -4.041715,-1.006309 -8.036962,-1.045807 -12.600342,-1.045807 -2.778772,0 -3.759283,1.459035 -6.300171,2.091635 -13.403847,3.33756 -20.772145,10.593781 -24.150682,24.053939 -0.792976,3.157327 -2.517443,6.261893 -3.150022,9.412409 -0.941451,4.686762 -0.454393,9.890151 -1.049853,14.641528 -0.776622,6.185443 -3.865617,17.020033 -2.1,24.053933 1.480484,5.8975 6.606067,9.71703 10.50034,13.59571 0.705339,0.70312 1.561559,3.11083 2.100001,4.18329 1.187945,2.36743 6.573106,8.03181 8.400319,10.45823 2.40843,3.19847 3.787201,5.54644 7.350192,7.32076 2.232459,1.11178 12.107037,0.49132 13.650342,-1.04579 7.26821,-18.01459 23.128892,-29.83803 35.700752,-43.9246 14.90393,-16.699867 21.44452,-28.363589 43.05119,-34.512179 z"
       style="fill:#000000;stroke:#000000;stroke-width:14.8197px;stroke-linecap:round;stroke-linejoin:miter;stroke-opacity:1" />
    <ellipse
       ry="21.962284"
       rx="24.675699"
       cy="210.62817"
       cx="249.99722"
       id="path1220"
       style="fill:#ffffff;stroke-width:14.8197" />
    <ellipse
       ry="15.687346"
       rx="16.800476"
       cy="211.67395"
       cx="253.67239"
       id="path1224"
       style="fill:#000000;stroke-width:14.8197" />
    <ellipse
       transform="scale(-1,1)"
       style="fill:#ffffff;stroke-width:14.8197"
       id="path1220-4"
       cx="-392.27618"
       cy="213.76564"
       rx="24.675699"
       ry="21.962284" />
    <ellipse
       transform="scale(-1,1)"
       style="fill:#000000;stroke-width:14.8197"
       id="path1224-8"
       cx="-388.60101"
       cy="214.81142"
       rx="16.800476"
       ry="15.687346" />
    <path
       inkscape:connector-curvature="0"
       id="path1261"
       d="m 322.69107,270.31509 c -4.73118,0 -9.46236,0 -14.19355,0 -3.99598,0 -7.4859,0.51752 -11.41638,1.2292 -4.83676,0.87588 -8.75583,1.67918 -6.78829,7.06831 0.5732,1.57079 1.43299,3.28453 2.46843,4.60979 1.07063,1.37205 1.95984,1.62297 3.39413,2.76586 4.3494,3.46559 8.75316,6.43831 13.5764,9.21954 1.7555,1.01238 3.54235,1.97558 5.24542,3.0732 0.86424,0.55655 1.62275,1.26083 2.46842,1.84391 0.6816,0.47002 1.57361,0.64527 2.15987,1.22918 0.0743,0.0726 -0.0743,0.23488 0,0.30733 0.15447,0.15366 0.77217,-0.15366 0.92512,0 0.41132,0.40984 -0.5138,0.30735 0.30885,0.30735"
       style="fill:#000000;stroke:#000000;stroke-width:14.8197px;stroke-linecap:round;stroke-linejoin:miter;stroke-opacity:1" />
    <path
       style="fill:#000000;stroke:#000000;stroke-width:14.8197px;stroke-linecap:round;stroke-linejoin:miter;stroke-opacity:1"
       d="m 318.98792,270.31509 c 4.73119,0 9.46237,0 14.19353,0 3.99599,0 7.48593,0.51752 11.41641,1.2292 4.83676,0.87588 8.75583,1.67918 6.78829,7.06831 -0.5732,1.57079 -1.43299,3.28453 -2.46843,4.60979 -1.07066,1.37205 -1.95984,1.62297 -3.39415,2.76586 -4.34938,3.46559 -8.75315,6.43831 -13.5764,9.21954 -1.75549,1.01238 -3.54233,1.97558 -5.2454,3.0732 -0.86424,0.55655 -1.62276,1.26083 -2.46842,1.84391 -0.6816,0.47002 -1.57361,0.64527 -2.15987,1.22918 -0.0743,0.0726 0.0743,0.23488 0,0.30733 -0.15447,0.15366 -0.77217,-0.15366 -0.92512,0 -0.41132,0.40984 0.5138,0.30735 -0.30887,0.30735"
       id="path1261-0"
       inkscape:connector-curvature="0" />
    <path
       sodipodi:nodetypes="ccccc"
       inkscape:connector-curvature="0"
       id="path2116"
       d="m 320.83949,301.96876 c 0.76179,21.66221 -13.28593,35.48487 -23.84924,42.58596 -5.63045,3.78505 -13.57283,7.09532 -20.17875,7.53844 -7.73286,0.51913 -17.34624,0.20411 -25.2301,-2.50572 -6.80639,-2.41149 -20.6486,-9.50238 -22.70956,-11.49415"
       style="fill:none;stroke:#000000;stroke-width:14.8197px;stroke-linecap:round;stroke-linejoin:miter;stroke-opacity:1" />
    <path
       style="fill:none;stroke:#000000;stroke-width:14.8197px;stroke-linecap:round;stroke-linejoin:miter;stroke-opacity:1"
       d="m 320.83949,301.96876 c -0.76177,21.66221 13.28595,35.48487 23.84926,42.58596 5.63045,3.78505 13.57283,7.09532 20.17875,7.53844 7.73286,0.51913 17.34623,0.20411 25.2301,-2.50572 6.80639,-2.41149 20.64859,-9.50238 22.70955,-11.49415"
       id="path2116-6"
       inkscape:connector-curvature="0"
       sodipodi:nodetypes="ccccc" />
    <path
       style="fill:#000000;stroke-width:12.0761"
       id="path1125-7"
       transform="scale(-1)"
       sodipodi:type="arc"
       sodipodi:cx="-547.62823"
       sodipodi:cy="-96.766434"
       sodipodi:rx="87.400574"
       sodipodi:ry="83.58696"
       sodipodi:start="0"
       sodipodi:end="4.7274813"
       sodipodi:arc-type="slice"
       d="m -460.22766,-96.766434 a 87.400574,83.58696 0 0 1 -54.25873,77.344422 87.400574,83.58696 0 0 1 -95.40798,-18.687209 87.400574,83.58696 0 0 1 -18.09771,-91.516609 87.400574,83.58696 0 0 1 81.68287,-50.71804 l -1.31902,83.577436 z" />
    <path
       style="fill:#000000;stroke:#000000;stroke-width:14.8197px;stroke-linecap:round;stroke-linejoin:miter;stroke-opacity:1"
       d="m 482.02694,77.551563 c 8.17833,0.915645 7.23376,-0.842578 12.60035,-4.183291 4.13973,-2.576985 19.50979,-9.963303 24.1507,-11.504045 9.68791,-3.216354 19.97041,-6.432792 29.40085,-10.458238 1.58087,-0.674873 3.39844,-2.676392 5.25017,-3.137484 4.04172,-1.006309 8.03696,-1.045786 12.60034,-1.045786 2.77878,0 3.75929,1.459013 6.30018,2.091656 13.40384,3.337519 20.77214,10.593759 24.15068,24.053918 0.79297,3.157349 2.51744,6.261893 3.15002,9.41241 0.94145,4.68676 0.45439,9.890149 1.04985,14.641534 0.77662,6.185443 3.86562,17.020043 2.10002,24.053913 -1.4805,5.8975 -6.60608,9.71702 -10.50034,13.59572 -0.70536,0.7031 -1.56158,3.11083 -2.10002,4.18327 -1.18794,2.36743 -6.5731,8.03183 -8.40032,10.45824 -2.40843,3.19847 -3.7872,5.54643 -7.35019,7.32078 -2.23246,1.11174 -12.10704,0.49131 -13.65034,-1.04581 -7.26821,-18.0146 -23.1289,-29.83801 -35.70073,-43.92457 C 510.1742,95.363913 503.63362,83.700175 482.02694,77.551605 Z"
       id="path1196-6"
       inkscape:connector-curvature="0" />
  </g>
</svg>
