<?xml version="1.0" encoding="UTF-8" standalone="no"?>
<svg
   xmlns:dc="http://purl.org/dc/elements/1.1/"
   xmlns:cc="http://creativecommons.org/ns#"
   xmlns:rdf="http://www.w3.org/1999/02/22-rdf-syntax-ns#"
   xmlns:svg="http://www.w3.org/2000/svg"
   xmlns="http://www.w3.org/2000/svg"
   xmlns:sodipodi="http://sodipodi.sourceforge.net/DTD/sodipodi-0.dtd"
   xmlns:inkscape="http://www.inkscape.org/namespaces/inkscape"
   version="1.1"
   id="Layer_1"
   x="0px"
   y="0px"
   width="205.167px"
   height="37.473px"
   viewBox="0 0 205.167 37.473"
   enable-background="new 0 0 205.167 37.473"
   xml:space="preserve"
   sodipodi:docname="logo-text-white.svg"
   inkscape:version="1.0beta2 (2b71d25, 2019-12-03)"><metadata
   id="metadata35"><rdf:RDF><cc:Work
       rdf:about=""><dc:format>image/svg+xml</dc:format><dc:type
         rdf:resource="http://purl.org/dc/dcmitype/StillImage" /></cc:Work></rdf:RDF></metadata><defs
   id="defs33" /><sodipodi:namedview
   pagecolor="#ffffff"
   bordercolor="#666666"
   inkscape:document-rotation="0"
   borderopacity="1"
   objecttolerance="10"
   gridtolerance="10"
   guidetolerance="10"
   inkscape:pageopacity="0"
   inkscape:pageshadow="2"
   inkscape:window-width="1392"
   inkscape:window-height="779"
   id="namedview31"
   showgrid="false"
   inkscape:zoom="4.9898039"
   inkscape:cx="93.84574"
   inkscape:cy="21.270997"
   inkscape:window-x="0"
   inkscape:window-y="23"
   inkscape:window-maximized="0"
   inkscape:current-layer="Layer_1" />
<g
   id="Layer_4"
   display="none">
	<path
   display="inline"
   fill="#FFFFFF"
   d="M170.148,17.94c-3.716-0.685-5.986-1.312-7.348-2.673c-1.36-1.359-1.988-3.63-2.674-7.348   c-0.058-0.308-0.32-0.528-0.635-0.528c-0.312,0-0.58,0.226-0.636,0.528c-0.685,3.718-1.312,5.986-2.673,7.348   c-1.361,1.36-3.633,1.988-7.348,2.673c-0.307,0.06-0.528,0.322-0.528,0.638c0,0.312,0.224,0.579,0.528,0.635   c3.715,0.685,5.986,1.312,7.348,2.673c1.359,1.36,1.988,3.632,2.673,7.348c0.056,0.308,0.321,0.528,0.636,0.528   c0.311,0,0.577-0.224,0.635-0.528c0.686-3.716,1.312-5.984,2.674-7.348c1.359-1.357,3.632-1.988,7.348-2.673   c0.307-0.056,0.527-0.321,0.527-0.635C170.675,18.263,170.455,17.998,170.148,17.94z"
   id="path10" />
</g>
<g
   id="Layer_2"
   display="none">
	<path
   display="inline"
   fill="none"
   stroke="#000000"
   stroke-width="8"
   stroke-linecap="round"
   stroke-miterlimit="10"
   d="   M-13.007-45.615C-6.302-55.44-2.382-67.318-2.382-80.111c0-33.843-27.435-61.274-61.277-61.274   c-33.842,0-61.276,27.435-61.276,61.274c0,33.843,27.435,61.276,61.276,61.276c14.613,0,28.031-5.115,38.562-13.652"
   id="path13" />
</g>

<text
   xml:space="preserve"
   style="font-style:normal;font-weight:normal;font-size:40px;line-height:1.25;font-family:sans-serif;fill:#ffffff;fill-opacity:1;stroke:none;"
   x="-1.4028608"
   y="33.406616"
   id="text39"><tspan
     sodipodi:role="line"
     id="tspan37"
     x="-1.4028608"
     y="33.406616">SEE<tspan
   id="tspan41"
   style="font-size:29.33330000000000126px;fill:#ffffff;"> </tspan>MORE</tspan></text></svg>
